<svg viewBox="0 0 135 38" fill="none" xmlns="http://www.w3.org/2000/svg">
<g clip-path="url(#clip0_413_9151)">
<path d="M130.2 38H4.7C2.1 38 0 36.005 0 33.535V4.465C0 1.995 2.1 0 4.7 0H130.2C132.8 0 135 1.995 135 4.465V33.44C135 36.005 132.8 38 130.2 38Z" fill="#F6FAFD"/>
<path d="M133.998 33.535C133.998 35.53 132.298 37.145 130.198 37.145H4.69844C2.59844 37.145 0.898438 35.53 0.898438 33.535V4.46498C0.898438 2.46998 2.59844 0.85498 4.69844 0.85498H130.198C132.298 0.85498 133.998 2.46998 133.998 4.46498V33.535Z" fill="#23272E"/>
<path d="M30.1011 18.8103C30.1011 15.7703 32.7011 14.2503 32.9011 14.1553C31.4011 12.0653 29.0011 11.7803 28.2011 11.7803C26.2011 11.5903 24.3011 12.9203 23.3011 12.9203C22.3011 12.9203 20.7011 11.7803 19.1011 11.8753C17.0011 11.8753 15.0011 13.1103 13.9011 14.9153C11.6011 18.6203 13.3011 24.1303 15.5011 27.1703C16.6011 28.6903 17.9011 30.3053 19.5011 30.2103C21.1011 30.1153 21.7011 29.2603 23.7011 29.2603C25.6011 29.2603 26.2011 30.2103 27.9011 30.2103C29.6011 30.2103 30.7011 28.6903 31.8011 27.2653C33.1011 25.5553 33.6011 23.9403 33.6011 23.8453C33.5011 23.6553 30.2011 22.4203 30.1011 18.8103Z" fill="#F6FAFD"/>
<path d="M26.9012 9.78514C27.8012 8.74014 28.4012 7.31514 28.2012 5.89014C26.9012 5.98514 25.4012 6.74514 24.4012 7.69514C23.6012 8.55014 22.9012 10.0701 23.1012 11.4001C24.6012 11.5901 26.0012 10.8301 26.9012 9.78514Z" fill="#F6FAFD"/>
<path d="M53.5984 29.925H51.2984L50.0984 26.22H45.7984L44.5984 29.925H42.3984L46.6984 17.29H49.2984L53.5984 29.925ZM49.7984 24.7L48.6984 21.375C48.5984 20.995 48.3984 20.235 47.9984 19C47.8984 19.57 47.6984 20.33 47.3984 21.375L46.1984 24.7H49.7984Z" fill="#F6FAFD"/>
<path d="M64.6986 25.2702C64.6986 26.7902 64.2986 28.0252 63.3986 28.9752C62.5986 29.7352 61.5986 30.2102 60.4986 30.2102C59.1986 30.2102 58.2986 29.7352 57.7986 28.8802V33.7252H55.6986V23.8452C55.6986 22.8952 55.6986 21.8502 55.5986 20.8052H57.4986L57.5986 22.2302C58.2986 21.1852 59.3986 20.6152 60.7986 20.6152C61.8986 20.6152 62.8986 20.9952 63.5986 21.8502C64.2986 22.7052 64.6986 23.8452 64.6986 25.2702ZM62.4986 25.3652C62.4986 24.5102 62.2986 23.7502 61.8986 23.1802C61.3986 22.6102 60.7986 22.3252 59.9986 22.3252C59.4986 22.3252 58.9986 22.5152 58.5986 22.8002C58.1986 23.1802 57.8986 23.5602 57.7986 24.1302C57.6986 24.4152 57.6986 24.6052 57.6986 24.7002V26.2202C57.6986 26.8852 57.8986 27.4552 58.2986 27.9302C58.6986 28.4052 59.2986 28.5952 59.9986 28.5952C60.7986 28.5952 61.3986 28.3102 61.8986 27.7402C62.2986 27.0752 62.4986 26.3152 62.4986 25.3652Z" fill="#F6FAFD"/>
<path d="M75.6986 25.2702C75.6986 26.7902 75.2986 28.0252 74.3986 28.9752C73.5986 29.7352 72.5986 30.2102 71.4986 30.2102C70.1986 30.2102 69.2986 29.7352 68.7986 28.8802V33.7252H66.6986V23.8452C66.6986 22.8952 66.6986 21.8502 66.5986 20.8052H68.4986L68.5986 22.2302C69.2986 21.1852 70.3986 20.6152 71.7986 20.6152C72.8986 20.6152 73.8986 20.9952 74.5986 21.8502C75.2986 22.7052 75.6986 23.8452 75.6986 25.2702ZM73.4986 25.3652C73.4986 24.5102 73.2986 23.7502 72.8986 23.1802C72.3986 22.6102 71.7986 22.3252 70.9986 22.3252C70.4986 22.3252 69.9986 22.5152 69.5986 22.8002C69.1986 23.1802 68.8986 23.5602 68.7986 24.1302C68.6986 24.4152 68.6986 24.6052 68.6986 24.7002V26.2202C68.6986 26.8852 68.8986 27.4552 69.2986 27.9302C69.6986 28.4052 70.2986 28.5952 70.9986 28.5952C71.7986 28.5952 72.3986 28.3102 72.8986 27.7402C73.2986 27.0752 73.4986 26.3152 73.4986 25.3652Z" fill="#F6FAFD"/>
<path d="M87.9969 26.41C87.9969 27.455 87.5969 28.405 86.7969 29.07C85.8969 29.83 84.6969 30.21 83.1969 30.21C81.7969 30.21 80.5969 29.925 79.7969 29.45L80.2969 27.74C81.1969 28.31 82.2969 28.595 83.3969 28.595C84.1969 28.595 84.7969 28.405 85.2969 28.12C85.6969 27.74 85.9969 27.36 85.9969 26.695C85.9969 26.22 85.7969 25.745 85.3969 25.365C84.9969 24.985 84.3969 24.7 83.5969 24.415C81.2969 23.56 80.0969 22.42 80.0969 20.805C80.0969 19.76 80.4969 18.905 81.2969 18.24C82.0969 17.575 83.1969 17.29 84.5969 17.29C85.7969 17.29 86.7969 17.48 87.5969 17.86L86.9969 19.38C86.1969 19 85.3969 18.81 84.4969 18.81C83.6969 18.81 83.1969 19 82.6969 19.38C82.2969 19.665 82.1969 20.045 82.1969 20.52C82.1969 20.995 82.3969 21.47 82.7969 21.755C83.1969 22.04 83.7969 22.42 84.6969 22.705C85.7969 23.18 86.6969 23.655 87.1969 24.225C87.7969 24.795 87.9969 25.555 87.9969 26.41Z" fill="#F6FAFD"/>
<path d="M95.0982 22.3254H92.7982V26.7904C92.7982 27.9304 93.1982 28.5004 93.9982 28.5004C94.3982 28.5004 94.6982 28.5004 94.8982 28.4054L94.9982 29.9254C94.5982 30.1154 93.9982 30.1154 93.2982 30.1154C92.4982 30.1154 91.7982 29.8304 91.2982 29.3554C90.7982 28.8804 90.5982 28.0254 90.5982 26.8854V22.3254H89.1982V20.8054H90.5982V19.0954L92.6982 18.5254V20.8054H94.9982L95.0982 22.3254Z" fill="#F6FAFD"/>
<path d="M105.698 25.2702C105.698 26.6952 105.298 27.8352 104.398 28.6902C103.498 29.6402 102.298 30.1152 100.898 30.1152C99.4982 30.1152 98.3982 29.6402 97.4982 28.7852C96.5982 27.9302 96.1982 26.7902 96.1982 25.4602C96.1982 24.0352 96.5982 22.8952 97.4982 21.9452C98.3982 21.0902 99.4982 20.6152 100.998 20.6152C102.398 20.6152 103.498 21.0902 104.398 21.9452C105.298 22.8002 105.698 23.9402 105.698 25.2702ZM103.498 25.3652C103.498 24.5102 103.298 23.8452 102.898 23.1802C102.498 22.4202 101.798 22.1352 100.998 22.1352C100.098 22.1352 99.4982 22.5152 98.9982 23.1802C98.5982 23.7502 98.3982 24.5102 98.3982 25.3652C98.3982 26.2202 98.5982 26.8852 98.9982 27.5502C99.4982 28.3102 100.098 28.5952 100.898 28.5952C101.698 28.5952 102.398 28.2152 102.798 27.4552C103.298 26.8852 103.498 26.2202 103.498 25.3652Z" fill="#F6FAFD"/>
<path d="M112.6 22.6102C112.4 22.6102 112.2 22.5152 111.9 22.5152C111.1 22.5152 110.6 22.8002 110.2 23.3702C109.8 23.8452 109.7 24.4152 109.7 25.1752V29.9252H107.6V23.6552C107.6 22.6102 107.6 21.6602 107.5 20.8052H109.4L109.5 22.5152H109.6C109.8 21.9452 110.2 21.4702 110.7 21.0902C111.2 20.8052 111.7 20.6152 112.2 20.6152C112.4 20.6152 112.6 20.6152 112.7 20.6152L112.6 22.6102Z" fill="#F6FAFD"/>
<path d="M122.199 24.9847C122.199 25.3647 122.199 25.6497 122.099 25.9347H115.699C115.699 26.7897 115.999 27.5497 116.599 28.0247C117.099 28.4047 117.799 28.6897 118.699 28.6897C119.599 28.6897 120.499 28.4997 121.299 28.2147L121.599 29.6397C120.699 30.0197 119.599 30.2097 118.399 30.2097C116.899 30.2097 115.699 29.8297 114.899 28.9747C114.099 28.1197 113.599 27.0747 113.599 25.6497C113.599 24.3197 113.999 23.0847 114.799 22.2297C115.599 21.2797 116.699 20.8047 118.199 20.8047C119.599 20.8047 120.599 21.2797 121.299 22.2297C121.899 22.7997 122.199 23.8447 122.199 24.9847ZM120.099 24.4147C120.099 23.8447 119.999 23.2747 119.699 22.8947C119.299 22.3247 118.799 22.0397 117.999 22.0397C117.299 22.0397 116.699 22.3247 116.299 22.8947C115.899 23.3697 115.699 23.8447 115.699 24.5097L120.099 24.4147Z" fill="#F6FAFD"/>
<path d="M45.4768 9.71832H44.689V9.15822H45.4449C45.7789 9.15822 46.0491 9.11116 46.2555 9.01705C46.4619 8.92294 46.6122 8.7924 46.7063 8.62543C46.8004 8.45846 46.8475 8.26569 46.8475 8.04711C46.8475 7.83764 46.7959 7.64638 46.6926 7.47334C46.5894 7.29727 46.43 7.15762 46.2145 7.0544C45.999 6.94815 45.7212 6.89502 45.3812 6.89502C45.1262 6.89502 44.8954 6.9436 44.689 7.04074C44.4826 7.13485 44.3186 7.26691 44.1972 7.43691C44.0758 7.60388 44.0151 7.79666 44.0151 8.01524H43.1362C43.1362 7.73291 43.1954 7.47942 43.3138 7.25477C43.4322 7.02708 43.5946 6.83431 43.801 6.67644C44.0075 6.51555 44.2458 6.3926 44.516 6.30759C44.7892 6.22259 45.0776 6.18009 45.3812 6.18009C45.7364 6.18009 46.0582 6.22107 46.3466 6.30304C46.635 6.38197 46.8824 6.50037 47.0888 6.65823C47.2953 6.81609 47.4531 7.0119 47.5624 7.24566C47.6717 7.47942 47.7263 7.75112 47.7263 8.06077C47.7263 8.28846 47.6732 8.50248 47.567 8.70285C47.4607 8.90321 47.3089 9.07929 47.1116 9.23108C46.9143 9.38287 46.6775 9.50278 46.4012 9.59082C46.1249 9.67582 45.8168 9.71832 45.4768 9.71832ZM44.689 9.33126H45.4768C45.8502 9.33126 46.1826 9.36921 46.4741 9.4451C46.7655 9.521 47.0114 9.6318 47.2118 9.77752C47.4121 9.92324 47.5639 10.1039 47.6671 10.3194C47.7734 10.5319 47.8265 10.7763 47.8265 11.0526C47.8265 11.3622 47.7658 11.637 47.6444 11.8768C47.526 12.1166 47.3575 12.32 47.1389 12.487C46.9203 12.6539 46.6608 12.7799 46.3602 12.8649C46.0627 12.9499 45.7364 12.9924 45.3812 12.9924C45.0958 12.9924 44.8135 12.956 44.5342 12.8832C44.2579 12.8073 44.0075 12.6919 43.7828 12.5371C43.5582 12.3792 43.3775 12.1788 43.2409 11.936C43.1074 11.6931 43.0406 11.4017 43.0406 11.0617H43.9194C43.9194 11.2833 43.9801 11.4867 44.1016 11.6719C44.226 11.857 44.3976 12.0058 44.6162 12.1181C44.8347 12.2274 45.0897 12.2821 45.3812 12.2821C45.7151 12.2821 45.9974 12.2305 46.2282 12.1272C46.4619 12.021 46.6395 11.8768 46.7609 11.6946C46.8854 11.5094 46.9477 11.3015 46.9477 11.0708C46.9477 10.8674 46.9143 10.6913 46.8475 10.5425C46.7837 10.3908 46.6881 10.2663 46.5606 10.1691C46.4361 10.072 46.2798 10.0007 46.0916 9.95512C45.9064 9.90654 45.6908 9.88226 45.4449 9.88226H44.689V9.33126ZM51.7609 12.0589V9.52251C51.7609 9.32822 51.7215 9.15973 51.6425 9.01705C51.5666 8.87133 51.4513 8.75901 51.2964 8.68008C51.1416 8.60115 50.9504 8.56168 50.7227 8.56168C50.5102 8.56168 50.3235 8.59811 50.1626 8.67097C50.0047 8.74383 49.8802 8.83946 49.7892 8.95785C49.7011 9.07625 49.6571 9.20375 49.6571 9.34037H48.8147C48.8147 9.16429 48.8602 8.98973 48.9513 8.81669C49.0424 8.64365 49.1729 8.4873 49.3429 8.34766C49.5159 8.20497 49.7224 8.09265 49.9622 8.01068C50.2051 7.92568 50.4753 7.88318 50.7728 7.88318C51.131 7.88318 51.4467 7.94389 51.7199 8.06533C51.9962 8.18676 52.2117 8.37042 52.3666 8.61633C52.5244 8.85919 52.6034 9.16429 52.6034 9.53162V11.8267C52.6034 11.9906 52.617 12.1652 52.6443 12.3504C52.6747 12.5356 52.7187 12.6949 52.7764 12.8285V12.9014H51.8975C51.855 12.8042 51.8216 12.6752 51.7974 12.5143C51.7731 12.3504 51.7609 12.1986 51.7609 12.0589ZM51.9066 9.91413L51.9157 10.5061H51.0642C50.8244 10.5061 50.6104 10.5258 50.4221 10.5653C50.2339 10.6017 50.076 10.6579 49.9485 10.7338C49.821 10.8097 49.7239 10.9053 49.6571 11.0207C49.5903 11.133 49.5569 11.2651 49.5569 11.4169C49.5569 11.5717 49.5918 11.7128 49.6617 11.8404C49.7315 11.9679 49.8362 12.0696 49.9759 12.1455C50.1186 12.2183 50.2931 12.2547 50.4995 12.2547C50.7576 12.2547 50.9853 12.2001 51.1826 12.0908C51.3799 11.9815 51.5363 11.8479 51.6516 11.6901C51.77 11.5322 51.8338 11.3789 51.8429 11.2302L52.2026 11.6354C52.1814 11.7629 52.1237 11.9041 52.0296 12.0589C51.9355 12.2138 51.8095 12.3625 51.6516 12.5052C51.4968 12.6448 51.3116 12.7617 51.0961 12.8558C50.8836 12.9469 50.6437 12.9924 50.3766 12.9924C50.0427 12.9924 49.7497 12.9272 49.4977 12.7966C49.2488 12.6661 49.0545 12.4915 48.9149 12.273C48.7782 12.0513 48.7099 11.8039 48.7099 11.5307C48.7099 11.2666 48.7615 11.0343 48.8648 10.834C48.968 10.6306 49.1167 10.4621 49.311 10.3285C49.5053 10.1919 49.7391 10.0887 50.0123 10.0189C50.2855 9.94904 50.5906 9.91413 50.9276 9.91413H51.9066ZM57.1115 7.97425V8.67097H54.8347V12.9014H53.9922V7.97425H57.1115ZM58.6871 8.92142V14.7957H57.8401V7.97425H58.6143L58.6871 8.92142ZM62.0068 10.3968V10.4925C62.0068 10.8507 61.9643 11.1831 61.8793 11.4897C61.7943 11.7933 61.6698 12.0574 61.5059 12.2821C61.345 12.5067 61.1461 12.6813 60.9093 12.8057C60.6725 12.9302 60.4008 12.9924 60.0942 12.9924C59.7815 12.9924 59.5053 12.9408 59.2654 12.8376C59.0256 12.7344 58.8222 12.5841 58.6552 12.3868C58.4883 12.1895 58.3547 11.9527 58.2545 11.6764C58.1574 11.4002 58.0906 11.089 58.0542 10.7429V10.2329C58.0906 9.8686 58.1589 9.54225 58.2591 9.25384C58.3593 8.96544 58.4913 8.71954 58.6552 8.51614C58.8222 8.30971 59.0241 8.15336 59.2609 8.04711C59.4977 7.93782 59.7709 7.88318 60.0806 7.88318C60.3902 7.88318 60.6649 7.94389 60.9048 8.06533C61.1446 8.18372 61.3465 8.35373 61.5104 8.57534C61.6744 8.79696 61.7973 9.06259 61.8793 9.37224C61.9643 9.67886 62.0068 10.0204 62.0068 10.3968ZM61.1598 10.4925V10.3968C61.1598 10.1509 61.134 9.9202 61.0824 9.70466C61.0308 9.48608 60.9503 9.29483 60.841 9.13089C60.7348 8.96393 60.5982 8.83339 60.4312 8.73928C60.2642 8.64213 60.0654 8.59356 59.8347 8.59356C59.6221 8.59356 59.437 8.62999 59.2791 8.70285C59.1243 8.7757 58.9922 8.87437 58.8829 8.99884C58.7736 9.12027 58.6841 9.25992 58.6143 9.41778C58.5475 9.5726 58.4974 9.7335 58.464 9.90047V11.0799C58.5247 11.2924 58.6097 11.4928 58.719 11.681C58.8283 11.8662 58.974 12.0164 59.1562 12.1318C59.3383 12.2441 59.5675 12.3003 59.8438 12.3003C60.0714 12.3003 60.2673 12.2532 60.4312 12.1591C60.5982 12.062 60.7348 11.9299 60.841 11.7629C60.9503 11.596 61.0308 11.4047 61.0824 11.1892C61.134 10.9706 61.1598 10.7384 61.1598 10.4925ZM64.4111 12.3914L65.7818 7.97425H66.6834L64.7071 13.6618C64.6616 13.7833 64.6009 13.9138 64.525 14.0535C64.4521 14.1961 64.358 14.3312 64.2426 14.4587C64.1273 14.5862 63.9876 14.6895 63.8237 14.7684C63.6628 14.8504 63.47 14.8913 63.2454 14.8913C63.1786 14.8913 63.0936 14.8822 62.9904 14.864C62.8872 14.8458 62.8143 14.8306 62.7718 14.8185L62.7672 14.1354C62.7915 14.1385 62.8295 14.1415 62.8811 14.1445C62.9357 14.1506 62.9737 14.1536 62.9949 14.1536C63.1862 14.1536 63.3486 14.1278 63.4822 14.0762C63.6158 14.0277 63.7281 13.9442 63.8192 13.8258C63.9133 13.7104 63.9937 13.551 64.0605 13.3476L64.4111 12.3914ZM63.4048 7.97425L64.6844 11.7994L64.9029 12.6873L64.2973 12.997L62.4849 7.97425H63.4048ZM69.2836 10.5471H68.3774V10.028H69.2153C69.4491 10.028 69.6342 9.99914 69.7708 9.94146C69.9075 9.88074 70.0046 9.79725 70.0623 9.691C70.12 9.58475 70.1488 9.46028 70.1488 9.3176C70.1488 9.19009 70.1154 9.07018 70.0486 8.95785C69.9849 8.84249 69.8817 8.7499 69.739 8.68008C69.5963 8.60722 69.405 8.57079 69.1652 8.57079C68.9709 8.57079 68.7948 8.6057 68.637 8.67552C68.4791 8.74231 68.3531 8.8349 68.259 8.9533C68.1679 9.06866 68.1224 9.1992 68.1224 9.34492H67.28C67.28 9.04437 67.365 8.78633 67.535 8.57079C67.708 8.35221 67.9372 8.18372 68.2226 8.06533C68.511 7.94693 68.8252 7.88773 69.1652 7.88773C69.4506 7.88773 69.7056 7.91961 69.9302 7.98336C70.1579 8.04408 70.3507 8.13515 70.5086 8.25658C70.6664 8.37498 70.7863 8.52373 70.8683 8.70285C70.9533 8.87892 70.9958 9.08384 70.9958 9.3176C70.9958 9.48457 70.9563 9.64243 70.8774 9.79118C70.7985 9.93994 70.6846 10.072 70.5359 10.1874C70.3871 10.2997 70.2065 10.3877 69.994 10.4515C69.7845 10.5152 69.5477 10.5471 69.2836 10.5471ZM68.3774 10.2283H69.2836C69.5781 10.2283 69.8376 10.2572 70.0623 10.3149C70.2869 10.3695 70.4752 10.4515 70.6269 10.5608C70.7787 10.67 70.8926 10.8051 70.9685 10.966C71.0474 11.1239 71.0869 11.3061 71.0869 11.5125C71.0869 11.7432 71.0398 11.9512 70.9457 12.1363C70.8546 12.3185 70.7241 12.4733 70.5541 12.6008C70.3841 12.7283 70.1807 12.8255 69.9439 12.8923C69.7101 12.959 69.4506 12.9924 69.1652 12.9924C68.8464 12.9924 68.5368 12.9378 68.2362 12.8285C67.9357 12.7192 67.6883 12.5507 67.494 12.323C67.2997 12.0923 67.2026 11.7994 67.2026 11.4442H68.045C68.045 11.5929 68.092 11.7341 68.1862 11.8677C68.2803 12.0013 68.4108 12.109 68.5778 12.191C68.7478 12.273 68.9436 12.3139 69.1652 12.3139C69.402 12.3139 69.5993 12.2775 69.7572 12.2046C69.9151 12.1318 70.0334 12.0346 70.1124 11.9132C70.1943 11.7918 70.2353 11.6597 70.2353 11.517C70.2353 11.3319 70.1989 11.1831 70.126 11.0708C70.0532 10.9585 69.9409 10.8765 69.7891 10.8249C69.6403 10.7702 69.4491 10.7429 69.2153 10.7429H68.3774V10.2283ZM73.0905 11.5671L75.3628 7.97425H76.2098V12.9014H75.3628V9.30849L73.0905 12.9014H72.2526V7.97425H73.0905V11.5671ZM79.5704 7.97425V12.9014H78.7234V7.97425H79.5704ZM81.2234 7.97425V8.65731H77.1023V7.97425H81.2234ZM83.7325 12.9924C83.3895 12.9924 83.0783 12.9348 82.799 12.8194C82.5228 12.701 82.2844 12.5356 82.0841 12.323C81.8868 12.1105 81.735 11.8586 81.6287 11.5671C81.5225 11.2757 81.4693 10.9569 81.4693 10.6109V10.4196C81.4693 10.0189 81.5285 9.66216 81.6469 9.34947C81.7653 9.03375 81.9262 8.7666 82.1296 8.54802C82.333 8.32944 82.5637 8.16399 82.8218 8.05166C83.0798 7.93934 83.347 7.88318 83.6232 7.88318C83.9754 7.88318 84.279 7.94389 84.534 8.06533C84.792 8.18676 85.003 8.35676 85.1669 8.57534C85.3309 8.79088 85.4523 9.04589 85.5312 9.34037C85.6102 9.6318 85.6496 9.95056 85.6496 10.2966V10.6746H81.9702V9.98699H84.8072V9.92324C84.7951 9.70466 84.7495 9.49216 84.6706 9.28572C84.5947 9.07929 84.4733 8.90928 84.3063 8.7757C84.1393 8.64213 83.9116 8.57534 83.6232 8.57534C83.432 8.57534 83.2559 8.61633 83.095 8.69829C82.9341 8.77722 82.796 8.89562 82.6806 9.05348C82.5653 9.21134 82.4757 9.40412 82.412 9.6318C82.3482 9.85949 82.3163 10.1221 82.3163 10.4196V10.6109C82.3163 10.8446 82.3482 11.0647 82.412 11.2711C82.4787 11.4745 82.5744 11.6537 82.6988 11.8085C82.8263 11.9633 82.9796 12.0847 83.1588 12.1728C83.3409 12.2608 83.5473 12.3048 83.7781 12.3048C84.0756 12.3048 84.3275 12.2441 84.534 12.1227C84.7404 12.0013 84.921 11.8388 85.0759 11.6354L85.5859 12.0407C85.4796 12.2016 85.3445 12.3549 85.1806 12.5006C85.0167 12.6464 84.8148 12.7648 84.575 12.8558C84.3382 12.9469 84.0574 12.9924 83.7325 12.9924ZM91.2598 10.7338H89.6432L89.6341 10.0599H90.9547C91.2158 10.0599 91.4329 10.034 91.6059 9.98244C91.782 9.93083 91.914 9.85342 92.0021 9.7502C92.0901 9.64698 92.1341 9.51948 92.1341 9.36769C92.1341 9.24929 92.1083 9.14607 92.0567 9.05804C92.0081 8.96696 91.9338 8.89258 91.8336 8.8349C91.7334 8.77419 91.6089 8.73017 91.4602 8.70285C91.3145 8.67249 91.1429 8.65731 90.9456 8.65731H89.8664V12.9014H89.0239V7.97425H90.9456C91.2583 7.97425 91.5391 8.00157 91.788 8.05622C92.04 8.11086 92.254 8.19435 92.4301 8.30667C92.6092 8.41596 92.7458 8.55561 92.84 8.72561C92.9341 8.89562 92.9811 9.09598 92.9811 9.3267C92.9811 9.47546 92.9508 9.61662 92.89 9.7502C92.8293 9.88377 92.7398 10.0022 92.6214 10.1054C92.503 10.2086 92.3573 10.2936 92.1842 10.3604C92.0112 10.4241 91.8123 10.4651 91.5877 10.4833L91.2598 10.7338ZM91.2598 12.9014H89.3381L89.7571 12.2183H91.2598C91.4936 12.2183 91.6879 12.1895 91.8427 12.1318C91.9975 12.0711 92.1129 11.9861 92.1888 11.8768C92.2677 11.7645 92.3072 11.6309 92.3072 11.4761C92.3072 11.3212 92.2677 11.1892 92.1888 11.0799C92.1129 10.9676 91.9975 10.8826 91.8427 10.8249C91.6879 10.7642 91.4936 10.7338 91.2598 10.7338H89.9802L89.9893 10.0599H91.5877L91.8928 10.3149C92.163 10.3361 92.3922 10.4029 92.5804 10.5152C92.7686 10.6275 92.9113 10.7702 93.0084 10.9433C93.1056 11.1133 93.1542 11.2985 93.1542 11.4988C93.1542 11.7295 93.1101 11.9329 93.0221 12.109C92.9371 12.2851 92.8126 12.4323 92.6487 12.5507C92.4848 12.6661 92.2859 12.7541 92.0522 12.8148C91.8184 12.8725 91.5543 12.9014 91.2598 12.9014Z" fill="#F6FAFD"/>
</g>
<defs>
<clipPath id="clip0_413_9151">
<rect width="135" height="38" fill="white"/>
</clipPath>
</defs>
</svg>
