<svg viewBox="0 0 135 38" fill="none" xmlns="http://www.w3.org/2000/svg">
<path d="M130 38H5C2.2 38 0 35.815 0 33.25V4.75C0 2.09 2.3 0 5 0H130C132.8 0 135 2.185 135 4.75V33.25C135 35.815 132.8 38 130 38Z" fill="#23272E"/>
<path d="M68.1016 20.7091C65.7016 20.7091 63.8016 22.4191 63.8016 24.7941C63.8016 27.0741 65.7016 28.8791 68.1016 28.8791C70.5016 28.8791 72.4016 27.1691 72.4016 24.7941C72.4016 22.3241 70.5016 20.7091 68.1016 20.7091ZM68.1016 27.1691C66.8016 27.1691 65.7016 26.1241 65.7016 24.6991C65.7016 23.2741 66.8016 22.2291 68.1016 22.2291C69.4016 22.2291 70.5016 23.1791 70.5016 24.6991C70.5016 26.1241 69.4016 27.1691 68.1016 27.1691ZM58.8016 20.7091C56.4016 20.7091 54.5016 22.4191 54.5016 24.7941C54.5016 27.0741 56.4016 28.8791 58.8016 28.8791C61.2016 28.8791 63.1016 27.1691 63.1016 24.7941C63.1016 22.3241 61.2016 20.7091 58.8016 20.7091ZM58.8016 27.1691C57.5016 27.1691 56.4016 26.1241 56.4016 24.6991C56.4016 23.2741 57.5016 22.2291 58.8016 22.2291C60.1016 22.2291 61.2016 23.1791 61.2016 24.6991C61.2016 26.1241 60.1016 27.1691 58.8016 27.1691ZM47.7016 21.9441V23.6541H52.0016C51.9016 24.6041 51.5016 25.3641 51.0016 25.8391C50.4016 26.4091 49.4016 27.0741 47.7016 27.0741C45.0016 27.0741 43.0016 25.0791 43.0016 22.5141C43.0016 19.9491 45.1016 17.9541 47.7016 17.9541C49.1016 17.9541 50.2016 18.5241 51.0016 19.1891L52.3016 17.9541C51.2016 17.0041 49.8016 16.2441 47.8016 16.2441C44.2016 16.2441 41.1016 19.0941 41.1016 22.5141C41.1016 25.9341 44.2016 28.7841 47.8016 28.7841C49.8016 28.7841 51.2016 28.2141 52.4016 26.9791C53.6016 25.8391 54.0016 24.2241 54.0016 22.9891C54.0016 22.6091 54.0016 22.2291 53.9016 21.9441H47.7016ZM93.1016 23.2741C92.7016 22.3241 91.7016 20.7091 89.5016 20.7091C87.3016 20.7091 85.5016 22.3241 85.5016 24.7941C85.5016 27.0741 87.3016 28.8791 89.7016 28.8791C91.6016 28.8791 92.8016 27.7391 93.2016 27.0741L91.8016 26.1241C91.3016 26.7891 90.7016 27.2641 89.7016 27.2641C88.7016 27.2641 88.1016 26.8841 87.6016 26.0291L93.3016 23.7491L93.1016 23.2741ZM87.3016 24.6041C87.3016 23.0841 88.6016 22.2291 89.5016 22.2291C90.2016 22.2291 90.9016 22.6091 91.1016 23.0841L87.3016 24.6041ZM82.6016 28.4991H84.5016V16.6241H82.6016V28.4991ZM79.6016 21.5641C79.1016 21.0891 78.3016 20.6141 77.3016 20.6141C75.2016 20.6141 73.2016 22.4191 73.2016 24.6991C73.2016 26.9791 75.1016 28.6891 77.3016 28.6891C78.3016 28.6891 79.1016 28.2141 79.5016 27.7391H79.6016V28.3091C79.6016 29.8291 78.7016 30.6841 77.3016 30.6841C76.2016 30.6841 75.4016 29.9241 75.2016 29.2591L73.6016 29.9241C74.1016 30.9691 75.3016 32.2991 77.4016 32.2991C79.6016 32.2991 81.4016 31.0641 81.4016 28.1191V20.8991H79.6016V21.5641ZM77.4016 27.1691C76.1016 27.1691 75.0016 26.1241 75.0016 24.6991C75.0016 23.2741 76.1016 22.2291 77.4016 22.2291C78.7016 22.2291 79.7016 23.2741 79.7016 24.6991C79.7016 26.1241 78.7016 27.1691 77.4016 27.1691ZM101.802 16.6241H97.3016V28.4991H99.2016V24.0341H101.802C103.902 24.0341 105.902 22.6091 105.902 20.3291C105.902 18.0491 103.902 16.6241 101.802 16.6241ZM101.902 22.3241H99.2016V18.2391H101.902C103.302 18.2391 104.102 19.3791 104.102 20.2341C104.002 21.2791 103.202 22.3241 101.902 22.3241ZM113.402 20.6141C112.002 20.6141 110.602 21.1841 110.102 22.4191L111.802 23.0841C112.202 22.4191 112.802 22.2291 113.502 22.2291C114.502 22.2291 115.402 22.7991 115.502 23.7491V23.8441C115.202 23.6541 114.402 23.3691 113.602 23.3691C111.802 23.3691 110.002 24.3191 110.002 26.0291C110.002 27.6441 111.502 28.6891 113.102 28.6891C114.402 28.6891 115.002 28.1191 115.502 27.5491H115.602V28.4991H117.402V23.9391C117.202 21.8491 115.502 20.6141 113.402 20.6141ZM113.202 27.1691C112.602 27.1691 111.702 26.8841 111.702 26.1241C111.702 25.1741 112.802 24.8891 113.702 24.8891C114.502 24.8891 114.902 25.0791 115.402 25.2691C115.202 26.4091 114.202 27.1691 113.202 27.1691ZM123.702 20.8991L121.602 26.0291H121.502L119.302 20.8991H117.302L120.602 28.1191L118.702 32.1091H120.602L125.702 20.8991H123.702ZM106.902 28.4991H108.802V16.6241H106.902V28.4991Z" fill="#F6FAFD"/>
<path d="M10.3984 7.12451C10.0984 7.40951 9.89844 7.88451 9.89844 8.45451V29.4495C9.89844 30.0195 10.0984 30.4945 10.3984 30.7795L10.4984 30.8745L22.8984 19.0945V18.9995V18.9045L10.3984 7.12451Z" fill="url(#paint0_linear_601_9123)"/>
<path d="M26.9984 23.0857L22.8984 19.1907V19.0007V18.9057L26.9984 15.0107L27.0984 15.1057L31.9984 17.7657C33.3984 18.5257 33.3984 19.7607 31.9984 20.5207L26.9984 23.0857Z" fill="url(#paint1_linear_601_9123)"/>
<path d="M27.0984 22.9895L22.8984 18.9995L10.3984 30.8745C10.8984 31.3495 11.5984 31.3495 12.4984 30.9695L27.0984 22.9895Z" fill="url(#paint2_linear_601_9123)"/>
<path d="M27.0984 15.0103L12.4984 7.12528C11.5984 6.65028 10.8984 6.74528 10.3984 7.22028L22.8984 19.0003L27.0984 15.0103Z" fill="url(#paint3_linear_601_9123)"/>
<path opacity="0.2" d="M26.9984 22.895L12.4984 30.685C11.6984 31.16 10.9984 31.065 10.4984 30.685L10.3984 30.78L10.4984 30.875C10.9984 31.255 11.6984 31.35 12.4984 30.875L26.9984 22.895Z" fill="#F6FAFD"/>
<path opacity="0.12" d="M10.4 30.685C10.1 30.4 10 29.925 10 29.355V29.45C10 30.02 10.2 30.495 10.5 30.78V30.685H10.4Z" fill="#F6FAFD"/>
<path opacity="0.12" d="M32 20.2345L27 22.8945L27.1 22.9895L32 20.3295C32.7 19.9495 33 19.4745 33 18.9995C33 19.4745 32.6 19.8545 32 20.2345Z" fill="#F6FAFD"/>
<path opacity="0.25" d="M12.5 7.21986L32 17.7649C32.6 18.1449 33 18.5249 33 18.9999C33 18.5249 32.7 18.0499 32 17.6699L12.5 7.12486C11.1 6.36486 10 7.02986 10 8.54986V8.64486C10 7.12486 11.1 6.45986 12.5 7.21986Z" fill="#23272E"/>
<path d="M42.0984 13.5859H41.3984V11.6859H41.9984C42.4984 11.3059 42.7984 10.5459 42.7984 9.50088V6.65088H46.7984V11.6859H47.4984V13.5859H46.7984V12.3509H42.1984V13.5859H42.0984ZM43.4984 9.50088C43.4984 10.3559 43.2984 11.1159 42.8984 11.6859H45.8984V7.41088H43.3984V9.50088H43.4984Z" fill="#F6FAFD"/>
<path d="M53.3984 11.5902C52.7984 12.1602 52.0984 12.4452 51.1984 12.4452C50.2984 12.4452 49.5984 12.1602 48.9984 11.5902C48.3984 11.0202 48.0984 10.3552 48.0984 9.50018C48.0984 8.64518 48.3984 7.98018 48.9984 7.41018C49.5984 6.84018 50.2984 6.55518 51.1984 6.55518C52.0984 6.55518 52.7984 6.84018 53.3984 7.41018C53.9984 7.98018 54.2984 8.64518 54.2984 9.50018C54.2984 10.3552 53.9984 11.0202 53.3984 11.5902ZM49.5984 11.1152C49.9984 11.4952 50.5984 11.7802 51.1984 11.7802C51.7984 11.7802 52.3984 11.5902 52.7984 11.1152C53.1984 10.7352 53.4984 10.1652 53.4984 9.50018C53.4984 8.83518 53.2984 8.26518 52.7984 7.88518C52.3984 7.50518 51.7984 7.22018 51.1984 7.22018C50.5984 7.22018 49.9984 7.41018 49.5984 7.88518C49.1984 8.26518 48.8984 8.83518 48.8984 9.50018C48.8984 10.1652 49.0984 10.7352 49.5984 11.1152Z" fill="#F6FAFD"/>
<path d="M58.1984 12.4452C57.2984 12.4452 56.5984 12.1602 55.9984 11.5902C55.3984 11.0202 55.0984 10.3552 55.0984 9.50018C55.0984 8.64518 55.3984 7.98018 55.9984 7.41018C56.5984 6.84018 57.2984 6.55518 58.1984 6.55518C59.0984 6.55518 59.7984 6.84018 60.3984 7.50518L59.8984 7.98018C59.4984 7.50518 58.8984 7.22018 58.1984 7.22018C57.4984 7.22018 56.9984 7.41018 56.4984 7.88518C55.9984 8.26518 55.7984 8.83518 55.7984 9.50018C55.7984 10.1652 55.9984 10.7352 56.4984 11.1152C56.8984 11.4952 57.4984 11.7802 58.1984 11.7802C58.8984 11.7802 59.4984 11.4952 59.9984 10.9252L60.4984 11.4002C60.1984 11.6852 59.8984 11.9702 59.4984 12.1602C59.0984 12.3502 58.6984 12.4452 58.1984 12.4452Z" fill="#F6FAFD"/>
<path d="M63.6992 12.3509H62.8992V7.31588H61.1992V6.65088H65.2992V7.31588H63.5992V12.3509H63.6992Z" fill="#F6FAFD"/>
<path d="M70.5969 6.65039L68.2969 11.4954C67.9969 12.1604 67.4969 12.5404 66.8969 12.5404C66.6969 12.5404 66.4969 12.5404 66.2969 12.4454L66.4969 11.7804C66.5969 11.8754 66.7969 11.8754 66.8969 11.8754C67.0969 11.8754 67.1969 11.8754 67.2969 11.7804C67.3969 11.6854 67.4969 11.5904 67.5969 11.4004L67.7969 10.9254L65.7969 6.74539H66.6969L68.1969 9.97539L69.5969 6.74539H70.5969V6.65039Z" fill="#F6FAFD"/>
<path d="M71.5 12.3504V6.65039H75.8V12.3504H75V7.31539H72.2V12.3504H71.5Z" fill="#F6FAFD"/>
<path d="M77.1992 12.3509V6.65088H77.9992V9.12088H80.9992V6.65088H81.7992V12.3509H80.9992V9.78588H77.9992V12.3509H77.1992Z" fill="#F6FAFD"/>
<path d="M88.0969 11.5902C87.4969 12.1602 86.7969 12.4452 85.8969 12.4452C84.9969 12.4452 84.2969 12.1602 83.6969 11.5902C83.0969 11.0202 82.7969 10.3552 82.7969 9.50018C82.7969 8.64518 83.0969 7.98018 83.6969 7.41018C84.2969 6.84018 84.9969 6.55518 85.8969 6.55518C86.7969 6.55518 87.4969 6.84018 88.0969 7.41018C88.6969 7.98018 88.9969 8.64518 88.9969 9.50018C88.8969 10.3552 88.5969 11.0202 88.0969 11.5902ZM84.1969 11.1152C84.5969 11.4952 85.1969 11.7802 85.7969 11.7802C86.3969 11.7802 86.9969 11.5902 87.3969 11.1152C87.7969 10.7352 88.0969 10.1652 88.0969 9.50018C88.0969 8.83518 87.8969 8.26518 87.3969 7.88518C86.9969 7.50518 86.3969 7.22018 85.7969 7.22018C85.1969 7.22018 84.5969 7.41018 84.1969 7.88518C83.7969 8.26518 83.4969 8.83518 83.4969 9.50018C83.4969 10.1652 83.7969 10.7352 84.1969 11.1152Z" fill="#F6FAFD"/>
<path d="M92.0977 12.3509V6.65088H94.2977C94.7977 6.65088 95.1977 6.84088 95.4977 7.12588C95.7977 7.41088 95.9977 7.79088 95.9977 8.26588C95.9977 8.55088 95.8977 8.74088 95.7977 9.02588C95.6977 9.21588 95.4977 9.40588 95.1977 9.50088C95.4977 9.59588 95.6977 9.78588 95.8977 9.97588C96.0977 10.1659 96.1977 10.4509 96.1977 10.8309C96.1977 11.3059 95.9977 11.6859 95.6977 11.9709C95.2977 12.2559 94.8977 12.4459 94.3977 12.4459H92.0977V12.3509ZM92.8977 9.12088H94.2977C94.5977 9.12088 94.7977 9.02588 94.9977 8.83588C95.1977 8.64588 95.2977 8.45588 95.2977 8.26588C95.2977 8.07588 95.1977 7.88588 94.9977 7.69588C94.7977 7.50588 94.5977 7.41088 94.2977 7.41088H92.8977V9.12088ZM92.8977 11.6859H94.4977C94.7977 11.6859 94.9977 11.5909 95.1977 11.4009C95.3977 11.2109 95.4977 11.0209 95.4977 10.7359C95.4977 10.5459 95.3977 10.2609 95.1977 10.0709C94.9977 9.88088 94.7977 9.78588 94.4977 9.78588H92.9977V11.6859H92.8977Z" fill="#F6FAFD"/>
<defs>
<linearGradient id="paint0_linear_601_9123" x1="21.7981" y1="8.27373" x2="5.87581" y2="25.0341" gradientUnits="userSpaceOnUse">
<stop stop-color="#00A0FF"/>
<stop offset="0.00657445" stop-color="#00A1FF"/>
<stop offset="0.2601" stop-color="#00BEFF"/>
<stop offset="0.5122" stop-color="#00D2FF"/>
<stop offset="0.7604" stop-color="#00DFFF"/>
<stop offset="1" stop-color="#00E3FF"/>
</linearGradient>
<linearGradient id="paint1_linear_601_9123" x1="33.8328" y1="19.0021" x2="9.63594" y2="19.0021" gradientUnits="userSpaceOnUse">
<stop stop-color="#FFE000"/>
<stop offset="0.4087" stop-color="#FFBD00"/>
<stop offset="0.7754" stop-color="#FFA500"/>
<stop offset="1" stop-color="#FF9C00"/>
</linearGradient>
<linearGradient id="paint2_linear_601_9123" x1="24.8254" y1="21.1808" x2="3.23346" y2="43.9092" gradientUnits="userSpaceOnUse">
<stop stop-color="#FF3A44"/>
<stop offset="1" stop-color="#C31162"/>
</linearGradient>
<linearGradient id="paint3_linear_601_9123" x1="7.29574" y1="0.167667" x2="16.9375" y2="10.3168" gradientUnits="userSpaceOnUse">
<stop stop-color="#32A071"/>
<stop offset="0.0685" stop-color="#2DA771"/>
<stop offset="0.4762" stop-color="#15CF74"/>
<stop offset="0.8009" stop-color="#06E775"/>
<stop offset="1" stop-color="#00F076"/>
</linearGradient>
</defs>
</svg>
