<svg width="153" height="51" viewBox="0 0 153 51" fill="none" xmlns="http://www.w3.org/2000/svg">
<g id="Group">
<g id="Group_2">
<g id="Group_3">
<g id="Vector">
<path d="M140.696 4.35497e-05H12.1713C11.7028 4.35497e-05 11.2399 4.35497e-05 10.7727 0.00259155C10.3815 0.00513955 9.99353 0.0125415 9.59864 0.0187713C8.74077 0.0288382 7.88491 0.104099 7.03851 0.2439C6.19329 0.386744 5.37456 0.656046 4.60999 1.0427C3.84635 1.43262 3.1486 1.93928 2.54204 2.54431C1.93229 3.14763 1.42402 3.845 1.03677 4.60958C0.648453 5.37264 0.379192 6.19033 0.238287 7.03441C0.096043 7.87742 0.0195002 8.73015 0.00934551 9.58496C-0.00251039 9.97556 -0.00376242 10.3675 -0.0100098 10.7581V40.2057C-0.00376242 40.6013 -0.00251039 40.9845 0.00934551 41.3802C0.0195033 42.235 0.0960462 43.0876 0.238287 43.9306C0.378803 44.7752 0.64808 45.5933 1.03677 46.3567C1.42385 47.1188 1.93219 47.8133 2.54204 48.4133C3.1463 49.021 3.8445 49.528 4.60999 49.915C5.37455 50.3027 6.1932 50.5736 7.03851 50.7186C7.88505 50.8573 8.74082 50.9326 9.59864 50.9439C9.99353 50.9525 10.3815 50.9575 10.7727 50.9575C11.2399 50.96 11.7028 50.96 12.1713 50.96H140.696C141.155 50.96 141.621 50.96 142.08 50.9575C142.47 50.9575 142.869 50.9525 143.258 50.9439C144.114 50.9332 144.969 50.8579 145.813 50.7186C146.661 50.5726 147.483 50.3017 148.251 49.915C149.016 49.5278 149.714 49.0208 150.317 48.4133C150.926 47.811 151.435 47.117 151.827 46.3567C152.213 45.5928 152.479 44.7747 152.618 43.9306C152.76 43.0875 152.84 42.235 152.855 41.3802C152.86 40.9845 152.86 40.6013 152.86 40.2057C152.87 39.7429 152.87 39.2826 152.87 38.8122V12.1491C152.87 11.6825 152.87 11.2197 152.86 10.7581C152.86 10.3675 152.86 9.97556 152.855 9.58491C152.84 8.73003 152.76 7.87749 152.618 7.03436C152.479 6.19077 152.212 5.37314 151.827 4.60953C151.038 3.077 149.788 1.82954 148.251 1.04258C147.483 0.656876 146.661 0.387646 145.813 0.243785C144.969 0.103368 144.115 0.0280814 143.258 0.018593C142.869 0.0123759 142.47 0.00491023 142.08 0.00242593C141.621 -0.00012207 141.155 -0.00012207 140.696 -0.00012207V4.35497e-05Z" fill="#A6A6A6"/>
<path d="M140.696 4.35497e-05H12.1713C11.7028 4.35497e-05 11.2399 4.35497e-05 10.7727 0.00259155C10.3815 0.00513955 9.99353 0.0125415 9.59864 0.0187713C8.74077 0.0288382 7.88491 0.104099 7.03851 0.2439C6.19329 0.386744 5.37456 0.656046 4.60999 1.0427C3.84635 1.43262 3.1486 1.93928 2.54204 2.54431C1.93229 3.14763 1.42402 3.845 1.03677 4.60958C0.648453 5.37264 0.379192 6.19033 0.238287 7.03441C0.096043 7.87742 0.0195002 8.73015 0.00934551 9.58496C-0.00251039 9.97556 -0.00376242 10.3675 -0.0100098 10.7581V40.2057C-0.00376242 40.6013 -0.00251039 40.9845 0.00934551 41.3802C0.0195033 42.235 0.0960462 43.0876 0.238287 43.9306C0.378803 44.7752 0.64808 45.5933 1.03677 46.3567C1.42385 47.1188 1.93219 47.8133 2.54204 48.4133C3.1463 49.021 3.8445 49.528 4.60999 49.915C5.37455 50.3027 6.1932 50.5736 7.03851 50.7186C7.88505 50.8573 8.74082 50.9326 9.59864 50.9439C9.99353 50.9525 10.3815 50.9575 10.7727 50.9575C11.2399 50.96 11.7028 50.96 12.1713 50.96H140.696C141.155 50.96 141.621 50.96 142.08 50.9575C142.47 50.9575 142.869 50.9525 143.258 50.9439C144.114 50.9332 144.969 50.8579 145.813 50.7186C146.661 50.5726 147.483 50.3017 148.251 49.915C149.016 49.5278 149.714 49.0208 150.317 48.4133C150.926 47.811 151.435 47.117 151.827 46.3567C152.213 45.5928 152.479 44.7747 152.618 43.9306C152.76 43.0875 152.84 42.235 152.855 41.3802C152.86 40.9845 152.86 40.6013 152.86 40.2057C152.87 39.7429 152.87 39.2826 152.87 38.8122V12.1491C152.87 11.6825 152.87 11.2197 152.86 10.7581C152.86 10.3675 152.86 9.97556 152.855 9.58491C152.84 8.73003 152.76 7.87749 152.618 7.03436C152.479 6.19077 152.212 5.37314 151.827 4.60953C151.038 3.077 149.788 1.82954 148.251 1.04258C147.483 0.656876 146.661 0.387646 145.813 0.243785C144.969 0.103368 144.115 0.0280814 143.258 0.018593C142.869 0.0123759 142.47 0.00491023 142.08 0.00242593C141.621 -0.00012207 141.155 -0.00012207 140.696 -0.00012207V4.35497e-05Z" fill="black"/>
</g>
<path id="Vector_2" d="M10.7789 49.8453C10.3897 49.8453 10.0098 49.8403 9.62362 49.8316C8.82358 49.8212 8.02541 49.7518 7.23566 49.6238C6.49925 49.4974 5.78587 49.2621 5.11904 48.9258C4.45833 48.5923 3.85572 48.155 3.33427 47.6307C2.80528 47.1125 2.36487 46.5115 2.03049 45.8515C1.69243 45.1872 1.45847 44.4752 1.33677 43.7402C1.20534 42.9505 1.13423 42.152 1.12405 41.3515C1.11595 41.0828 1.10535 40.1882 1.10535 40.1882V10.7581C1.10535 10.7581 1.11664 9.87723 1.12411 9.61844C1.13386 8.81924 1.20455 8.02193 1.33559 7.23343C1.45752 6.49644 1.69166 5.78236 2.0299 5.11591C2.36305 4.45638 2.80102 3.85494 3.32682 3.33492C3.85204 2.80996 4.45658 2.37041 5.11842 2.03229C5.78371 1.69708 6.49574 1.46348 7.23066 1.33931C8.02301 1.21009 8.82395 1.14022 9.62677 1.1303L10.7795 1.11475H142.074L143.241 1.13093C144.036 1.14035 144.83 1.2096 145.615 1.33807C146.357 1.46379 147.077 1.69902 147.75 2.03603C149.076 2.71742 150.154 3.79545 150.835 5.11902C151.168 5.78087 151.398 6.48912 151.519 7.21974C151.651 8.01472 151.726 8.81829 151.741 9.62405C151.745 9.98485 151.745 10.3724 151.745 10.7581C151.755 11.2358 151.755 11.6906 151.755 12.149V38.8122C151.755 39.275 151.755 39.7266 151.745 40.182C151.745 40.5963 151.745 40.9758 151.74 41.3664C151.725 42.1578 151.652 42.947 151.521 43.7278C151.402 44.468 151.169 45.1856 150.831 45.8553C150.495 46.5082 150.057 47.1039 149.534 47.6207C149.012 48.1479 148.408 48.5877 147.746 48.9234C147.075 49.2623 146.357 49.4984 145.615 49.6238C144.825 49.7525 144.027 49.8219 143.227 49.8316C142.853 49.8403 142.461 49.8453 142.08 49.8453L140.696 49.8478L10.7789 49.8453Z" fill="black"/>
</g>
<g id="&#60;Group&#62;">
<g id="&#60;Group&#62;_2">
<g id="&#60;Group&#62;_3">
<path id="&#60;Path&#62;" d="M31.6341 25.8631C31.6478 24.7997 31.931 23.7571 32.4574 22.8323C32.9838 21.9074 33.7363 21.1303 34.6448 20.5734C34.0676 19.7514 33.3063 19.075 32.4211 18.5978C31.536 18.1207 30.5515 17.8559 29.5457 17.8245C27.4004 17.5999 25.3206 19.1046 24.2273 19.1046C23.1129 19.1046 21.4297 17.8468 19.6172 17.884C18.4448 17.9217 17.3022 18.2617 16.3007 18.8708C15.2993 19.4798 14.4731 20.3372 13.9027 21.3593C11.4319 25.6252 13.2749 31.8946 15.6417 35.3428C16.8259 37.0313 18.2099 38.9174 20.0208 38.8505C21.7929 38.7772 22.4547 37.7237 24.5937 37.7237C26.7129 37.7237 27.3339 38.8505 29.1815 38.808C31.083 38.7772 32.2811 37.112 33.4237 35.4075C34.2746 34.2044 34.9293 32.8747 35.3636 31.4676C34.2589 31.0017 33.3161 30.2218 32.6529 29.2251C31.9897 28.2285 31.6354 27.0592 31.6341 25.8631Z" fill="white"/>
<path id="&#60;Path&#62;_2" d="M28.1442 15.5567C29.181 14.3156 29.6918 12.7203 29.5681 11.1097C27.9841 11.2756 26.5209 12.0305 25.4701 13.224C24.9564 13.8071 24.5629 14.4854 24.3122 15.2202C24.0614 15.955 23.9584 16.7319 24.009 17.5064C24.8012 17.5146 25.585 17.3433 26.3013 17.0056C27.0176 16.6679 27.6477 16.1725 28.1442 15.5567Z" fill="white"/>
</g>
</g>
<g id="Group_4">
<path id="Vector_3" d="M54.0342 34.576H47.9869L46.5347 38.8521H43.9733L49.7012 23.0316H52.3623L58.0902 38.8521H55.4852L54.0342 34.576ZM48.6132 32.6028H53.4067L51.0437 25.6629H50.9775L48.6132 32.6028Z" fill="white"/>
<path id="Vector_4" d="M70.4604 33.0855C70.4604 36.6699 68.5366 38.9727 65.6333 38.9727C64.8979 39.0111 64.1665 38.8422 63.5229 38.4853C62.8792 38.1284 62.3494 37.598 61.994 36.9547H61.9391V42.6678H59.5648V27.3176H61.863V29.2361H61.9067C62.2784 28.596 62.8172 28.0683 63.4657 27.7092C64.1142 27.3501 64.8483 27.1731 65.5897 27.197C68.5253 27.197 70.4604 29.5111 70.4604 33.0855ZM68.0201 33.0855C68.0201 30.7502 66.8098 29.215 64.9634 29.215C63.1493 29.215 61.9291 30.7826 61.9291 33.0855C61.9291 35.4095 63.1493 36.966 64.9634 36.966C66.8099 36.966 68.0201 35.4419 68.0201 33.0855Z" fill="white"/>
<path id="Vector_5" d="M83.1914 33.0855C83.1914 36.6698 81.2676 38.9727 78.3643 38.9727C77.6289 39.0111 76.8975 38.8422 76.2538 38.4853C75.6102 38.1284 75.0803 37.5979 74.725 36.9547H74.67V42.6678H72.2958V27.3176H74.5939V29.2361H74.6376C75.0093 28.596 75.5481 28.0683 76.1966 27.7092C76.8452 27.3501 77.5792 27.1731 78.3206 27.197C81.2563 27.197 83.1914 29.511 83.1914 33.0855ZM80.751 33.0855C80.751 30.7502 79.5408 29.2149 77.6943 29.2149C75.8803 29.2149 74.6601 30.7826 74.6601 33.0855C74.6601 35.4095 75.8803 36.9659 77.6943 36.9659C79.5408 36.9659 80.751 35.4419 80.751 33.0855H80.751Z" fill="white"/>
<path id="Vector_6" d="M91.6054 34.444C91.7813 36.0129 93.3096 37.043 95.3982 37.043C97.3994 37.043 98.8391 36.0128 98.8391 34.5982C98.8391 33.3703 97.9708 32.635 95.9147 32.1311L93.8586 31.6372C90.9454 30.9355 89.5929 29.5769 89.5929 27.3723C89.5929 24.6426 91.9784 22.7677 95.3657 22.7677C98.7181 22.7677 101.016 24.6426 101.094 27.3723H98.6969C98.5534 25.7934 97.2446 24.8404 95.332 24.8404C93.4194 24.8404 92.1106 25.8047 92.1106 27.208C92.1106 28.3265 92.9465 28.9847 94.9914 29.4885L96.7393 29.9165C99.9944 30.6841 101.347 31.988 101.347 34.3021C101.347 37.2619 98.9826 39.1157 95.2222 39.1157C91.7039 39.1157 89.3284 37.3054 89.1749 34.4439L91.6054 34.444Z" fill="white"/>
<path id="Vector_7" d="M106.471 24.588V27.3177H108.67V29.1926H106.471V35.5514C106.471 36.5392 106.911 36.9996 107.878 36.9996C108.139 36.995 108.4 36.9767 108.659 36.9448V38.8085C108.224 38.8895 107.783 38.9262 107.34 38.918C104.999 38.918 104.085 38.0409 104.085 35.8039V29.1926H102.404V27.3177H104.085V24.588H106.471Z" fill="white"/>
<path id="Vector_8" d="M109.944 33.0854C109.944 29.4562 112.088 27.1757 115.43 27.1757C118.784 27.1757 120.917 29.4562 120.917 33.0854C120.917 36.7245 118.795 38.995 115.43 38.995C112.066 38.995 109.944 36.7245 109.944 33.0854ZM118.498 33.0854C118.498 30.5959 117.354 29.1265 115.43 29.1265C113.506 29.1265 112.363 30.6071 112.363 33.0854C112.363 35.5849 113.506 37.043 115.43 37.043C117.354 37.043 118.498 35.5849 118.498 33.0854H118.498Z" fill="white"/>
<path id="Vector_9" d="M122.875 27.3177H125.139V29.2809H125.194C125.347 28.6677 125.708 28.1259 126.214 27.7463C126.721 27.3668 127.343 27.1728 127.976 27.197C128.25 27.196 128.523 27.2256 128.79 27.2853V29.4999C128.444 29.3946 128.084 29.3463 127.723 29.3568C127.378 29.3428 127.034 29.4035 126.715 29.5346C126.396 29.6656 126.109 29.864 125.874 30.1162C125.639 30.3683 125.461 30.6681 125.353 30.9951C125.246 31.3221 125.21 31.6685 125.249 32.0105V38.8521H122.875L122.875 27.3177Z" fill="white"/>
<path id="Vector_10" d="M139.737 35.4642C139.417 37.5581 137.372 38.995 134.756 38.995C131.391 38.995 129.303 36.7469 129.303 33.1401C129.303 29.5222 131.402 27.1757 134.656 27.1757C137.856 27.1757 139.869 29.3679 139.869 32.8652V33.6764H131.699V33.8194C131.662 34.2439 131.715 34.6716 131.856 35.0739C131.996 35.4763 132.221 35.8442 132.516 36.1532C132.81 36.4622 133.167 36.7053 133.563 36.8662C133.958 37.0271 134.384 37.1022 134.811 37.0865C135.372 37.139 135.935 37.0094 136.416 36.7171C136.898 36.4248 137.271 35.9853 137.482 35.4642L139.737 35.4642ZM131.711 32.0216H137.493C137.515 31.64 137.457 31.258 137.323 30.8997C137.189 30.5415 136.983 30.2147 136.716 29.9398C136.45 29.6649 136.129 29.4479 135.775 29.3024C135.42 29.1568 135.039 29.086 134.656 29.0942C134.27 29.0919 133.886 29.166 133.529 29.3121C133.171 29.4583 132.846 29.6737 132.572 29.9459C132.298 30.2181 132.081 30.5416 131.933 30.8979C131.785 31.2542 131.71 31.6361 131.711 32.0217V32.0216Z" fill="white"/>
</g>
</g>
</g>
<g id="&#60;Group&#62;_4">
<g id="Group_5">
<path id="Vector_11" d="M46.926 14.3369H47.9453C48.1208 14.3587 48.2989 14.344 48.4684 14.2937C48.6379 14.2435 48.7951 14.1588 48.9301 14.0449C49.0652 13.9311 49.1751 13.7906 49.253 13.6322C49.3308 13.4739 49.375 13.3013 49.3826 13.1251C49.3826 12.424 48.8536 11.9712 47.9566 11.9712C47.7768 11.9461 47.5938 11.9572 47.4184 12.0039C47.243 12.0505 47.0788 12.1317 46.9354 12.2427C46.792 12.3537 46.6723 12.4922 46.5835 12.6501C46.4947 12.8079 46.4385 12.9819 46.4182 13.1618H45.2991C45.3183 12.8353 45.4048 12.5162 45.5531 12.2244C45.7014 11.9327 45.9083 11.6745 46.161 11.4659C46.4136 11.2574 46.7067 11.1029 47.0218 11.0122C47.3369 10.9214 47.6674 10.8964 47.9927 10.9385C49.4936 10.9385 50.5504 11.7764 50.5504 12.9826C50.5539 13.3867 50.4184 13.7798 50.1663 14.0962C49.9143 14.4126 49.561 14.6333 49.1655 14.7213V14.8109C49.6344 14.8316 50.076 15.0366 50.3937 15.3811C50.7114 15.7256 50.8794 16.1815 50.8611 16.6491C50.8264 16.9853 50.7247 17.3112 50.5621 17.6077C50.3994 17.9043 50.1791 18.1654 49.9139 18.3759C49.6487 18.5864 49.3441 18.742 49.0178 18.8335C48.6916 18.9251 48.3503 18.9508 48.014 18.9091C47.6769 18.9549 47.3341 18.9326 47.0059 18.8435C46.6777 18.7543 46.3708 18.6002 46.1036 18.3903C45.8364 18.1804 45.6143 17.919 45.4506 17.6217C45.2869 17.3243 45.1849 16.9972 45.1506 16.6597H46.2872C46.3559 17.3869 47.0258 17.856 48.014 17.856C49.0021 17.856 49.6471 17.3291 49.6471 16.5863C49.6471 15.833 49.0395 15.3689 47.9778 15.3689H46.926V14.3369Z" fill="white"/>
<path id="Vector_12" d="M52.1523 17.1026C52.1523 16.07 52.9246 15.4746 54.292 15.39L55.8503 15.3005V14.8053C55.8503 14.1994 55.4498 13.8573 54.6726 13.8573C54.0388 13.8573 53.6008 14.0893 53.4736 14.4949H52.3744C52.4905 13.5095 53.4212 12.8775 54.7262 12.8775C56.1685 12.8775 56.9819 13.5935 56.9819 14.8053V18.725H55.8878V17.9188H55.7979C55.6156 18.2079 55.3596 18.4437 55.056 18.6019C54.7524 18.7602 54.4122 18.8353 54.07 18.8195C53.8285 18.8445 53.5844 18.8188 53.3534 18.7441C53.1225 18.6693 52.9098 18.5471 52.7292 18.3853C52.5485 18.2235 52.4038 18.0258 52.3045 17.8049C52.2051 17.584 52.1533 17.3447 52.1523 17.1026ZM55.8503 16.6124V16.1328L54.4454 16.2224C53.6532 16.2752 53.2939 16.544 53.2939 17.0497C53.2939 17.566 53.743 17.8665 54.3606 17.8665C54.5416 17.8848 54.7244 17.8665 54.8982 17.8129C55.0719 17.7593 55.2331 17.6714 55.3721 17.5544C55.5111 17.4374 55.625 17.2937 55.7072 17.1318C55.7894 16.97 55.838 16.7934 55.8503 16.6124Z" fill="white"/>
<path id="Vector_13" d="M59.9948 13.9412V18.725H58.8595V12.9882H62.6474V13.9412L59.9948 13.9412Z" fill="white"/>
<path id="Vector_14" d="M69.5282 15.854C69.5282 17.6767 68.6037 18.8194 67.1515 18.8194C66.795 18.8437 66.4389 18.7659 66.1253 18.5952C65.8116 18.4245 65.5534 18.168 65.3811 17.8558H65.2912V20.6321H64.1559V12.9881H65.2488V13.9362H65.3337C65.5091 13.6132 65.7707 13.3448 66.0895 13.1607C66.4083 12.9766 66.7719 12.884 67.1402 12.893C68.6037 12.893 69.5282 14.0307 69.5282 15.854ZM68.3604 15.854C68.3604 14.6422 67.7853 13.91 66.8233 13.91C65.8677 13.91 65.27 14.6578 65.27 15.859C65.27 17.0546 65.8676 17.803 66.8183 17.803C67.7852 17.803 68.3604 17.0708 68.3604 15.854Z" fill="white"/>
<path id="Vector_15" d="M71.0403 20.7797V19.8049C71.1632 19.8204 71.2869 19.8275 71.4108 19.826C71.6527 19.8439 71.8927 19.7721 72.0847 19.6243C72.2767 19.4765 72.4073 19.2633 72.4513 19.0254L72.5362 18.7461L70.4539 12.9882H71.6903L73.1326 17.5449H73.2224L74.6597 12.9882H75.8636L73.719 18.962C73.2274 20.3579 72.6834 20.8058 71.5107 20.8058C71.4158 20.8058 71.1463 20.7952 71.0403 20.7797Z" fill="white"/>
<path id="Vector_16" d="M76.7482 17.0969H77.8785C77.9896 17.6027 78.4649 17.8664 79.1299 17.8664C79.886 17.8664 80.3501 17.5343 80.3501 17.018C80.3501 16.4649 79.9334 16.2012 79.1299 16.2012H78.269V15.3216H79.1149C79.8011 15.3216 80.1505 15.0584 80.1505 14.5788C80.1505 14.1577 79.8124 13.8361 79.1149 13.8361C78.4799 13.8361 78.0158 14.1048 77.9421 14.5577H76.848C76.9298 14.0373 77.2131 13.5697 77.6371 13.2555C78.061 12.9413 78.5917 12.8056 79.1149 12.8775C80.4823 12.8775 81.2646 13.494 81.2646 14.4631C81.271 14.733 81.1843 14.9969 81.0189 15.2107C80.8536 15.4245 80.6197 15.5752 80.3563 15.6376V15.7272C80.6699 15.7675 80.9577 15.9212 81.1652 16.1592C81.3726 16.3971 81.4852 16.7027 81.4817 17.018C81.4817 18.1085 80.551 18.8301 79.1299 18.8301C77.8735 18.83 76.853 18.2559 76.7482 17.0969Z" fill="white"/>
<path id="Vector_17" d="M83.1167 18.725V12.9882H84.2421V16.934H84.3319L86.9831 12.9882H88.1085V18.725H86.9831V14.758H86.8983L84.2421 18.725L83.1167 18.725Z" fill="white"/>
<path id="Vector_18" d="M94.308 13.9413H92.4964V18.725H91.3598V13.9413H89.5482V12.9883H94.308V13.9413Z" fill="white"/>
<path id="Vector_19" d="M100.424 17.176C100.269 17.7003 99.9346 18.1537 99.4788 18.457C99.0229 18.7604 98.4747 18.8944 97.9298 18.8357C97.5508 18.8456 97.1741 18.7733 96.826 18.6235C96.4778 18.4738 96.1666 18.2503 95.9137 17.9686C95.6609 17.6868 95.4725 17.3536 95.3618 16.992C95.251 16.6304 95.2205 16.2491 95.2723 15.8746C95.2219 15.4989 95.2529 15.1168 95.3634 14.7541C95.4739 14.3915 95.6613 14.0567 95.9128 13.7725C96.1643 13.4883 96.4741 13.2613 96.8212 13.1069C97.1684 12.9525 97.5447 12.8742 97.9248 12.8775C99.5255 12.8775 100.492 13.968 100.492 15.7695V16.1645H96.4301V16.228C96.4122 16.4385 96.4386 16.6505 96.5076 16.8503C96.5767 17.0501 96.6869 17.2333 96.8312 17.3881C96.9755 17.5428 97.1507 17.6658 97.3454 17.7491C97.5402 17.8323 97.7503 17.874 97.9622 17.8714C98.2336 17.9038 98.5085 17.8549 98.752 17.7311C98.9955 17.6073 99.1966 17.414 99.3296 17.176L100.424 17.176ZM96.4301 15.3272H99.3346C99.3489 15.1348 99.3228 14.9415 99.2578 14.7597C99.1927 14.5779 99.0903 14.4118 98.9571 14.2718C98.8239 14.1319 98.6628 14.0212 98.4841 13.9471C98.3055 13.8729 98.1133 13.8368 97.9198 13.8411C97.7234 13.8384 97.5284 13.875 97.3464 13.9488C97.1644 14.0225 96.9991 14.1319 96.8603 14.2705C96.7214 14.409 96.6118 14.5739 96.5379 14.7554C96.464 14.9369 96.4274 15.1313 96.4301 15.3272H96.4301Z" fill="white"/>
<path id="Vector_20" d="M105.237 12.9882H107.831C108.956 12.9882 109.616 13.5568 109.616 14.4469C109.618 14.7294 109.523 15.0039 109.346 15.2245C109.169 15.4451 108.921 15.5984 108.644 15.6587V15.7483C108.98 15.7695 109.295 15.9185 109.524 16.1646C109.753 16.4108 109.879 16.7352 109.875 17.0708C109.875 18.0717 109.12 18.7249 107.857 18.7249H105.237V12.9882ZM106.363 13.8573V15.3427H107.488C108.174 15.3427 108.502 15.0796 108.502 14.5944C108.502 14.1471 108.217 13.8572 107.614 13.8572L106.363 13.8573ZM106.363 16.1751V17.8559H107.709C108.38 17.8559 108.739 17.5605 108.739 17.018C108.739 16.4438 108.333 16.1751 107.567 16.1751L106.363 16.1751Z" fill="white"/>
</g>
</g>
</g>
</svg>
