<svg  width="183" height="55" viewBox="0 0 183 55" fill="none" xmlns="http://www.w3.org/2000/svg">
<path d="M53.3614 19.5847C54.3266 21.4387 54.8782 23.5527 54.8782 25.788C54.8782 33.1523 48.9319 39.1303 41.6069 39.1303C34.2818 39.1303 28.3356 33.1523 28.3356 25.788C28.3356 23.2408 29.0422 20.8496 30.2832 18.8223" stroke="white" stroke-width="2.24874" stroke-miterlimit="10" stroke-linecap="round" stroke-linejoin="round"/>
<path d="M50.6898 22.1143C51.4309 22.7206 51.8962 23.6562 51.8962 24.6784C51.8962 26.5149 50.414 28.0049 48.5871 28.0049C46.7601 28.0049 45.2779 26.5149 45.2779 24.6784C45.2779 24.5051 45.2952 24.3319 45.3124 24.1586" stroke="white" stroke-width="2.24874" stroke-miterlimit="10" stroke-linecap="round" stroke-linejoin="round"/>
<path d="M37.9011 24.1584C37.9356 24.3317 37.9356 24.5049 37.9356 24.6782C37.9356 26.5146 36.4533 28.0046 34.6264 28.0046C32.7995 28.0046 31.3173 26.5146 31.3173 24.6782C31.3173 23.656 31.7826 22.7377 32.5065 22.1313" stroke="white" stroke-width="2.24874" stroke-miterlimit="10" stroke-linecap="round" stroke-linejoin="round"/>
<path d="M53.3962 19.5498C53.7753 19.9657 53.9994 17.0546 53.5513 16.8293C53.1032 16.6041 51.1039 14.5594 42.6929 11.4924C34.7991 8.61602 29.8008 7.78429 27.7843 8.51205C23.4754 9.82895 22.0621 10.9899 21.7863 11.7177C21.5106 12.4454 20.6316 13.8663 23.0962 15.5991C25.5609 17.3318 30.2145 18.926 30.2145 18.926C30.2145 18.926 30.6281 18.2675 30.9728 17.7997C31.352 17.2799 31.938 15.3911 39.6767 15.3911C47.4155 15.3911 52.5861 18.6487 53.3962 19.5498Z" stroke="white" stroke-width="2.24874" stroke-miterlimit="10" stroke-linecap="round" stroke-linejoin="round"/>
<path d="M31.7653 7.9229C31.9721 7.07385 32.4375 5.6703 33.4199 4.78659C34.6264 3.69495 35.4365 2.75925 40.1245 2.67261C44.8126 2.58598 47.5702 4.05883 48.0184 4.44004C48.4492 4.80392 49.5351 6.50203 48.9663 10.9033" stroke="white" stroke-width="2.24874" stroke-miterlimit="10" stroke-linecap="round" stroke-linejoin="round"/>
<path d="M48.2596 4.73486C48.2596 4.73486 50.0004 4.85616 52.3962 6.51961C54.7919 8.18307 54.8264 11.1114 53.5509 16.8296" stroke="white" stroke-width="2.24874" stroke-miterlimit="10" stroke-linecap="round" stroke-linejoin="round"/>
<path d="M39.6937 2.67285C39.6937 2.67285 41.4862 2.79415 42.348 4.73485C43.2097 6.67555 42.7099 8.23504 41.6068 11.1114" stroke="white" stroke-width="2.24874" stroke-miterlimit="10" stroke-linecap="round" stroke-linejoin="round"/>
<path d="M43.0546 2.84604C42.7961 2.60349 42.8995 1.6506 44.7264 2.1357C46.5534 2.62081 45.7433 3.41778 45.7433 3.41778" stroke="white" stroke-width="2.24874" stroke-miterlimit="10" stroke-linecap="round" stroke-linejoin="round"/>
<path d="M41.6243 25.7877C53.1376 20.4161 65.9607 17.4185 79.4733 17.4185C80.0593 17.4185 80.6453 17.4185 81.2314 17.4358C79.8525 19.775 78.3703 22.0449 76.7846 24.2456V24.2109L70.2179 23.8124L75.2162 26.3422H75.2334C72.5792 29.8251 69.6664 33.1173 66.5468 36.1843V36.167L61.7381 33.3079L64.513 38.0904H64.5302C63.9614 38.6102 63.3927 39.13 62.8239 39.6325C60.6178 41.5733 58.3082 43.3927 55.9125 45.1081H55.8952L50.5523 41.8505L53.3099 46.8755C49.5871 49.3707 45.6919 51.5713 41.5898 53.4774C37.505 51.5713 33.5926 49.3707 29.8697 46.8929L32.6274 41.8678L27.2844 45.1254C24.9059 43.41 22.5964 41.5906 20.3902 39.6499C19.8215 39.13 19.2527 38.6275 18.6839 38.1077L21.4588 33.3253L16.6501 36.1843C13.5305 33.1173 10.635 29.8424 7.9807 26.3595L12.979 23.8297L6.41227 24.2282C4.84385 22.0276 3.37884 19.775 2 17.4358C2.58601 17.4185 3.17201 17.4185 3.75802 17.4185C17.2878 17.4185 30.111 20.4161 41.6243 25.7877ZM41.6243 25.7877C42.6239 26.2556 43.6236 27.122 44.1407 28.1963L41.6071 33.5332L39.1079 28.1963C39.5216 27.1046 40.6246 26.2556 41.6243 25.7877Z" stroke="white" stroke-width="2.24874" stroke-miterlimit="10" stroke-linecap="round" stroke-linejoin="round"/>
<path d="M94.005 22.7529V12.4262H95.8195V21.0564H100.349V12.4262H102.163V21.0564H103.565V24.597H101.868V22.7529H94.005ZM106.951 22.7529H105.357V12.4262H107.172V19.7729L112.586 12.4262H114.179V22.7529H112.365V15.421L106.951 22.7529ZM120.892 22.8709V21.499C118.044 21.499 116.127 20.0532 116.127 17.4421C116.127 14.8604 118.059 13.4294 120.892 13.3851V12.3082H122.706V13.3851C125.524 13.4294 127.471 14.9046 127.471 17.4421C127.471 20.0237 125.524 21.4842 122.706 21.499V22.8709H120.892ZM125.553 17.4421C125.553 16.0553 124.639 15.0817 122.706 15.0522V19.8319C124.58 19.8172 125.553 19.0206 125.553 17.4421ZM118.044 17.4421C118.044 18.9911 119.077 19.8172 120.892 19.8319V15.0522C119.003 15.0669 118.044 16.0406 118.044 17.4421ZM131.231 22.7529H129.417V12.4262C129.992 12.4262 131.629 12.3967 132.352 12.3967C135.391 12.3967 136.35 14.0195 136.35 15.716C136.35 17.4716 135.037 19.0648 132.574 19.0648C132.264 19.0648 131.674 19.0648 131.231 19.0206V22.7529ZM132.529 14.0932C132.161 14.0932 131.718 14.108 131.231 14.1228V17.2945C131.659 17.3388 132.102 17.3683 132.515 17.3683C133.592 17.3683 134.432 16.852 134.432 15.7013C134.432 14.6243 133.769 14.0932 132.529 14.0932ZM137.61 17.5896C137.61 14.5948 139.809 12.2639 142.98 12.2639C146.049 12.2639 148.365 14.3735 148.365 17.5896C148.365 20.6876 146.049 22.9152 142.98 22.9152C139.912 22.9152 137.61 20.8056 137.61 17.5896ZM139.528 17.5896C139.528 19.6549 141.048 21.2187 142.98 21.2187C145.149 21.2187 146.447 19.6254 146.447 17.5896C146.447 15.4505 144.928 13.9605 142.98 13.9605C141.003 13.9605 139.528 15.4505 139.528 17.5896ZM150.465 22.7382V12.4557C151.04 12.4262 152.412 12.382 153.445 12.382C155.908 12.382 156.838 13.5032 156.838 14.9341C156.838 16.1143 156.248 16.8667 155.363 17.2798V17.3093C156.38 17.5601 157.177 18.342 157.177 19.7139C157.177 21.8383 155.525 22.8119 153.341 22.8119C152.397 22.8119 151.07 22.7824 150.465 22.7382ZM153.563 18.3124H152.279V21.0416C152.53 21.0712 152.958 21.1154 153.474 21.1154C154.699 21.1154 155.363 20.5991 155.363 19.6254C155.363 18.755 154.699 18.3124 153.563 18.3124ZM153.415 14.0785C153.002 14.0785 152.604 14.0932 152.279 14.1228V16.7339H153.504C154.345 16.7339 155.038 16.3061 155.038 15.362C155.038 14.5211 154.389 14.0785 153.415 14.0785ZM158.803 17.5896C158.803 14.5948 161.001 12.2639 164.173 12.2639C167.241 12.2639 169.557 14.3735 169.557 17.5896C169.557 20.6876 167.241 22.9152 164.173 22.9152C161.104 22.9152 158.803 20.8056 158.803 17.5896ZM160.72 17.5896C160.72 19.6549 162.24 21.2187 164.173 21.2187C166.341 21.2187 167.639 19.6254 167.639 17.5896C167.639 15.4505 166.12 13.9605 164.173 13.9605C162.196 13.9605 160.72 15.4505 160.72 17.5896ZM173.25 22.7529H171.657V12.4262H173.472V19.7729L178.886 12.4262H180.479V22.7529H178.664V15.421L173.25 22.7529ZM173.294 9.91831H174.991C175.109 10.4937 175.507 10.7739 176.245 10.7739C176.909 10.7739 177.366 10.5527 177.425 9.91831H179.122C179.077 11.187 177.868 12.0279 176.245 12.0279C174.475 12.0279 173.398 11.1723 173.294 9.91831ZM94.005 40.7529V30.4262H95.8195V35.324L99.8912 30.4262H102.075L97.8258 35.2355L102.34 40.7529H100.039L95.8195 35.4273V40.7529H94.005ZM102.503 40.7529L106.869 30.3967H108.463L112.829 40.7529H110.897L109.82 38.1122H105.409L104.332 40.7529H102.503ZM107.622 32.7424L106.102 36.4157H109.126L107.622 32.7424ZM114.376 40.7529V30.4262H116.205L119.731 35.2503L123.095 30.4262H124.806V40.7529H123.006V33.2882L119.746 37.8762H119.48L116.191 33.3325V40.7529H114.376ZM134.091 40.7529V32.1228H129.488V40.7529H127.673V30.4262H135.905V40.7529H134.091ZM147.234 30.4262L143.723 38.3483C143.015 39.9268 142.204 40.7529 140.92 40.7529C140.389 40.7529 139.784 40.5611 139.504 40.3399L140.138 38.8056C140.419 38.9974 140.611 39.0564 140.906 39.0564C141.392 39.0564 141.717 38.7761 141.924 38.3335L142.071 37.9795L137.513 30.4262H139.563L142.941 36.1944L145.405 30.4262H147.234ZM155.531 38.3925L156.224 39.7498C155.575 40.4431 154.262 40.9152 152.92 40.9152C149.763 40.9152 147.594 38.8056 147.594 35.5896C147.594 32.6243 149.468 30.2639 152.876 30.2639C154.218 30.2639 155.339 30.6918 156.018 31.3114L155.206 32.6538C154.587 32.2408 153.908 31.9605 152.876 31.9605C150.958 31.9605 149.512 33.3472 149.512 35.5896C149.512 37.7434 150.973 39.2187 153.082 39.2187C153.953 39.2187 154.823 38.9384 155.531 38.3925Z" fill="white"/>
</svg>
